<?xml version="1.0" encoding="UTF-8"?>
<svg version="1.1" xmlns="http://www.w3.org/2000/svg" width="512" height="512">
<path d="M0 0 C1.80141449 0.00022659 1.80141449 0.00022659 3.63922119 0.00045776 C5.57689362 0.01594162 5.57689362 0.01594162 7.55371094 0.03173828 C8.89320667 0.03547044 10.23270514 0.03831646 11.57220459 0.04031372 C15.09036859 0.04793421 18.60836633 0.06756892 22.12646484 0.08972168 C25.71937817 0.11021435 29.31231846 0.11932274 32.90527344 0.12939453 C39.94961211 0.15081644 46.99383814 0.18493314 54.03808594 0.22705078 C54.06134245 45.26040408 54.07877637 90.29375671 54.08915127 135.3271149 C54.09040091 140.73117882 54.09169533 146.13524273 54.09301758 151.53930664 C54.09341104 153.15203976 54.09341104 153.15203976 54.09381246 154.79735335 C54.0975561 169.76409574 54.10368766 184.73083541 54.11182027 199.69757603 C54.1258694 225.55766098 54.1350297 251.41774304 54.13574219 277.27783203 C54.13578076 278.28991944 54.13581933 279.30200685 54.13585907 280.34476358 C54.13774462 354.30945594 53.79470597 428.26619782 53.03808594 502.22705078 C53.69808594 502.22705078 54.35808594 502.22705078 55.03808594 502.22705078 C55.03808594 502.88705078 55.03808594 503.54705078 55.03808594 504.22705078 C47.04070331 504.31983138 39.04354646 504.39085592 31.04575825 504.43429947 C27.33182545 504.4551529 23.61826153 504.48342833 19.90454102 504.52880859 C16.31890945 504.57234824 12.73363214 504.59620478 9.14775658 504.60655975 C7.78140882 504.61393672 6.41507992 504.62834259 5.04888344 504.64997101 C3.13182189 504.6791065 1.21440202 504.68068554 -0.70288086 504.68115234 C-2.33836128 504.69447601 -2.33836128 504.69447601 -4.00688171 504.70806885 C-7.69904998 504.10706032 -9.30367967 502.81324546 -11.96191406 500.22705078 C-13.50615213 497.80079353 -14.88083713 495.44967493 -16.21191406 492.91455078 C-17.00173168 491.46172112 -17.79344226 490.00991916 -18.58691406 488.55908203 C-18.98394531 487.82898926 -19.38097656 487.09889648 -19.79003906 486.34667969 C-21.52005875 483.21750657 -23.35636279 480.1579541 -25.21191406 477.10205078 C-29.4739242 470.05537623 -33.67283579 462.97271778 -37.85424805 455.87792969 C-40.78343476 450.90882731 -43.7236731 445.94686829 -46.68457031 440.99658203 C-47.2855957 439.98861572 -47.88662109 438.98064941 -48.50585938 437.94213867 C-49.66710457 435.99524153 -50.83171407 434.05034634 -52 432.10766602 C-52.51981445 431.23440674 -53.03962891 430.36114746 -53.57519531 429.46142578 C-54.03708252 428.69024414 -54.49896973 427.9190625 -54.97485352 427.12451172 C-55.96191406 425.22705078 -55.96191406 425.22705078 -55.96191406 423.22705078 C-57.13067078 423.231492 -58.29942749 423.23593323 -59.50360107 423.24050903 C-70.51001975 423.28102623 -81.51642333 423.31102131 -92.52289963 423.33067513 C-98.18163915 423.34111895 -103.84031853 423.35528916 -109.49902344 423.37792969 C-114.9584538 423.39963659 -120.41782627 423.4116149 -125.87729645 423.41680527 C-127.9617326 423.42050488 -130.04616553 423.42772917 -132.13057709 423.43851089 C-135.04675685 423.45299711 -137.96269638 423.45502991 -140.87890625 423.45410156 C-141.74349457 423.46129211 -142.60808289 423.46848267 -143.49887085 423.47589111 C-144.29529999 423.47314178 -145.09172913 423.47039246 -145.91229248 423.46755981 C-146.60179363 423.4694034 -147.29129478 423.47124699 -148.00168991 423.47314644 C-150.36690822 423.17620593 -151.93389867 422.4694559 -153.96191406 421.22705078 C-155.66601563 418.81958008 -155.66601563 418.81958008 -157.35253906 415.80126953 C-157.97531738 414.70137695 -158.5980957 413.60148437 -159.23974609 412.46826172 C-159.89714039 411.28369417 -160.55452961 410.0991238 -161.21191406 408.91455078 C-162.23067861 407.10770837 -163.25337205 405.30312836 -164.27627563 403.49862671 C-165.26386961 401.75554417 -166.24817748 400.0106011 -167.23242188 398.265625 C-169.11709365 394.95441313 -171.06664981 391.70687238 -173.08691406 388.47705078 C-177.13956254 381.99456761 -181.02418674 375.41608731 -184.87524414 368.81225586 C-187.64326799 364.07956793 -190.46370766 359.40920457 -193.46582031 354.82080078 C-204.01536881 338.5676408 -204.01536881 338.5676408 -203.20800781 330.81298828 C-200.33685442 322.55054686 -195.38909388 315.25960182 -190.68505859 307.93798828 C-188.19013449 304.0128484 -185.85577365 300.00068911 -183.52441406 295.97705078 C-182.00995482 293.38993078 -180.48671545 290.80808503 -178.96191406 288.22705078 C-178.52379395 287.47866943 -178.08567383 286.73028809 -177.63427734 285.95922852 C-174.85538985 281.25826933 -171.94664373 276.6902043 -168.88378906 272.16845703 C-167.49266856 270.04247909 -166.10204937 267.91617305 -164.71191406 265.78955078 C-163.97328125 264.73445313 -163.23464844 263.67935547 -162.47363281 262.59228516 C-160.46338413 259.44521954 -158.93650752 256.83551754 -157.96191406 253.22705078 C-159.10335754 248.90502261 -161.30539042 245.77476484 -163.96191406 242.22705078 C-164.57035156 241.14037109 -165.17878906 240.05369141 -165.80566406 238.93408203 C-174.73502856 223.32875398 -183.75813495 207.77254431 -193.05566406 192.38330078 C-195.34409656 188.59425682 -197.60740721 184.79047066 -199.86816406 180.98486328 C-200.84244734 179.27091489 -200.84244734 179.27091489 -201.96191406 178.22705078 C-202.912524 170.24914715 -202.40136405 164.43304083 -197.72900391 157.82958984 C-196.03461067 155.33411707 -194.6025154 152.82500685 -193.19238281 150.16064453 C-189.94291415 144.13109728 -186.44749842 138.2720309 -182.89941406 132.41455078 C-177.90016012 124.12564518 -172.9346815 115.81898336 -168.02441406 107.47705078 C-154.82299651 85.08813323 -154.82299651 85.08813323 -151.96191406 82.22705078 C-148.98921902 82.07737209 -146.11148649 82.05204337 -143.14111328 82.11450195 C-141.24616675 82.13696726 -139.35121833 82.15927313 -137.45626831 82.18144226 C-136.44814968 82.19672155 -135.44003105 82.21200085 -134.40136337 82.22774315 C-129.0702061 82.29964081 -123.7387844 82.30991588 -118.40722656 82.33056641 C-111.6185973 82.3601708 -104.83168598 82.40803849 -98.04394531 82.52514648 C-92.56204018 82.61811544 -87.08298428 82.64746964 -81.60034561 82.6347599 C-79.51343401 82.64156514 -77.42646082 82.67161506 -75.34023666 82.72560692 C-64.81636633 83.46489544 -64.81636633 83.46489544 -55.31522942 79.95091438 C-52.26326848 76.46499854 -50.62726127 72.53315553 -48.96191406 68.22705078 C-48.15609105 66.80385085 -47.32745784 65.39251831 -46.45019531 64.01220703 C-45.72365304 62.77207171 -44.99840037 61.53118 -44.27441406 60.28955078 C-43.42828236 58.84541 -42.58191556 57.40140694 -41.73535156 55.95751953 C-41.06971191 54.8212915 -41.06971191 54.8212915 -40.390625 53.66210938 C-37.73559949 49.1369514 -35.06781752 44.61932917 -32.39941406 40.10205078 C-31.5692981 38.69669067 -31.5692981 38.69669067 -30.72241211 37.26293945 C-27.17553287 31.26420832 -23.61388299 25.27473955 -20.00390625 19.3137207 C-18.28740228 16.47251398 -16.60844205 13.61709479 -14.99707031 10.71533203 C-14.38734375 9.62607422 -13.77761719 8.53681641 -13.14941406 7.41455078 C-12.36630859 5.98175781 -12.36630859 5.98175781 -11.56738281 4.52001953 C-8.50375781 0.14447725 -5.11716879 -0.02150071 0 0 Z " fill="#0B688D" transform="translate(201.9619140625,3.77294921875)"/>
<path d="M0 0 C1.08459503 0.04645157 2.16919006 0.09290314 3.28665161 0.14076233 C4.97191452 0.15986412 4.97191452 0.15986412 6.69122314 0.17935181 C10.26952614 0.22961962 13.84270229 0.34251029 17.41946411 0.45716858 C19.84907821 0.50232328 22.27877205 0.54338611 24.70852661 0.58021545 C30.65557973 0.67928897 36.59965575 0.8297574 42.54446411 1.01966858 C43.30852701 75.9591523 43.70926515 150.88850535 43.67303252 225.83233547 C43.66926355 234.53345565 43.67062853 243.23456444 43.67483521 251.9356842 C43.70961005 325.6364243 43.2958533 399.32322574 42.54446411 473.01966858 C35.28664264 473.35029831 28.03076865 473.57731877 20.76712036 473.73377991 C18.29893455 473.79901331 15.8312485 473.8876294 13.36477661 474.00038147 C-6.63978338 474.89171368 -6.63978338 474.89171368 -11.34832585 471.76125252 C-14.56551094 468.34271899 -16.01055038 464.46173644 -17.45553589 460.01966858 C-18.1477469 458.76508625 -18.87225835 457.526571 -19.6545105 456.32606506 C-20.21662231 455.35741516 -20.77873413 454.38876526 -21.35787964 453.39076233 C-22.01272339 452.26669983 -22.66756714 451.14263733 -23.34225464 449.98451233 C-24.02584839 448.80873108 -24.70944214 447.63294983 -25.39303589 446.45716858 C-29.95475685 438.61994172 -34.5538566 430.81139607 -39.30319214 423.08607483 C-39.69562607 422.44649338 -40.08806 421.80691193 -40.49238586 421.14794922 C-42.38026802 418.07342356 -44.27645953 415.00452157 -46.1857605 411.94325256 C-46.86259888 410.84440735 -47.53943726 409.74556213 -48.23678589 408.61341858 C-49.13494019 407.16999084 -49.13494019 407.16999084 -50.05123901 405.69740295 C-51.45090056 403.0285073 -52.19822899 401.01585757 -52.45553589 398.01966858 C-51.2267253 395.60198375 -49.98218482 393.54992394 -48.45553589 391.33216858 C-43.72277776 384.12574181 -39.35529811 376.75637064 -35.08053589 369.26966858 C-23.11559642 348.39032794 -23.11559642 348.39032794 -16.86433411 338.42497253 C-15.40626541 336.03661038 -15.40626541 336.03661038 -14.3014679 333.43315125 C-12.92536816 330.57487724 -11.61594501 328.35165081 -9.45553589 326.01966858 C-5.45517993 324.64157067 -1.68583583 324.84759969 2.50540161 325.04310608 C3.65110626 325.05725555 4.79681091 325.07140503 5.97723389 325.08598328 C9.62733201 325.14185133 13.27123077 325.26727606 16.91946411 325.39466858 C19.39723987 325.44483909 21.87511211 325.49046472 24.35305786 325.53138733 C30.41923905 325.64149124 36.48080174 325.81398125 42.54446411 326.01966858 C42.54446411 320.73966858 42.54446411 315.45966858 42.54446411 310.01966858 C40.2287439 310.0903656 40.2287439 310.0903656 37.86624146 310.16249084 C32.13039229 310.32557185 26.39474711 310.42877555 20.65725708 310.51405334 C18.17578662 310.55927413 15.69455545 310.62066386 13.21389771 310.69862366 C9.64379912 310.80799993 6.07687153 310.85887788 2.50540161 310.89857483 C1.3989328 310.9450264 0.29246399 310.99147797 -0.84753418 311.03933716 C-8.38368954 311.04426008 -8.38368954 311.04426008 -11.41725159 308.1444397 C-12.97965852 305.83489072 -14.24337041 303.52828006 -15.45553589 301.01966858 C-16.03633911 300.07067688 -16.61714233 299.12168518 -17.21554565 298.14393616 C-17.92408691 296.91646667 -17.92408691 296.91646667 -18.64694214 295.66419983 C-19.19261841 294.72310364 -19.73829468 293.78200745 -20.30050659 292.81239319 C-21.15068359 291.33718201 -21.15068359 291.33718201 -22.01803589 289.83216858 C-23.25188912 287.70426178 -24.4862764 285.57666458 -25.72116089 283.44935608 C-26.34184448 282.37911194 -26.96252808 281.3088678 -27.60202026 280.20619202 C-30.46914501 275.277094 -33.36581952 270.36566418 -36.26803589 265.45716858 C-36.80146606 264.5534552 -37.33489624 263.64974182 -37.88449097 262.71864319 C-40.31042416 258.61550305 -42.7500095 254.52223677 -45.23287964 250.45326233 C-45.86456055 249.41504333 -45.86456055 249.41504333 -46.50900269 248.35585022 C-47.27787425 247.09562878 -48.05111855 245.83805911 -48.82980347 244.58387756 C-52.11467121 239.20010322 -52.11467121 239.20010322 -52.45553589 236.01966858 C-51.39840698 233.61976624 -51.39840698 233.61976624 -49.72897339 230.93373108 C-49.11586304 229.93188782 -48.50275269 228.93004456 -47.87106323 227.89784241 C-47.19768921 226.82429504 -46.52431519 225.75074768 -45.83053589 224.64466858 C-44.78746215 222.9460852 -43.74440484 221.24749097 -42.70300293 219.54788208 C-41.63943585 217.81458284 -40.57105462 216.08431394 -39.50241089 214.35414124 C-36.55225974 209.54818174 -33.68702901 204.69418096 -30.83053589 199.83216858 C-29.77991557 198.05082365 -28.72913391 196.26957388 -27.67819214 194.48841858 C-26.60390305 192.66554336 -25.52968686 190.84262518 -24.45553589 189.01966858 C-22.06080598 184.95651672 -19.66473899 180.89415676 -17.26803589 176.83216858 C-16.43828247 175.42318298 -16.43828247 175.42318298 -15.59176636 173.98573303 C-14.82243774 172.6818866 -14.82243774 172.6818866 -14.03756714 171.35169983 C-13.58615356 170.585755 -13.13473999 169.81981018 -12.66964722 169.03065491 C-11.64401632 167.33185706 -10.55628149 165.67078698 -9.45553589 164.01966858 C-7.24090576 163.65890503 -7.24090576 163.65890503 -4.45504761 163.67909241 C-2.89365555 163.6794323 -2.89365555 163.6794323 -1.30072021 163.67977905 C-0.17360626 163.69526291 0.95350769 163.71074677 2.11477661 163.72669983 C3.84182327 163.73306709 3.84182327 163.73306709 5.60375977 163.73956299 C9.29256266 163.75639806 12.98082547 163.79405984 16.66946411 163.83216858 C19.16554999 163.84720914 21.6616444 163.86089863 24.15774536 163.8731842 C30.28686071 163.90631751 36.41557075 163.95813351 42.54446411 164.01966858 C42.54446411 158.73966858 42.54446411 153.45966858 42.54446411 148.01966858 C25.38446411 148.01966858 8.22446411 148.01966858 -9.45553589 148.01966858 C-12.42553589 142.73966858 -15.39553589 137.45966858 -18.45553589 132.01966858 C-21.18545959 127.48438968 -23.92987828 122.9639342 -26.70553589 118.45716858 C-33.83123814 106.82912422 -40.67700861 95.06397709 -47.25924683 83.11781311 C-48.51038379 80.85956444 -48.51038379 80.85956444 -50.36959839 78.20326233 C-51.81378115 75.29931211 -51.32695877 74.11973044 -50.45553589 71.01966858 C-49.47730008 69.07972709 -48.41791485 67.17982909 -47.30709839 65.31263733 C-46.30706787 63.6192926 -46.30706787 63.6192926 -45.28683472 61.89173889 C-44.55159023 60.66343596 -43.81615209 59.43524893 -43.08053589 58.20716858 C-42.32300049 56.93116813 -41.56609476 55.65479368 -40.80978394 54.37806702 C-39.20415823 51.67020163 -37.59425294 48.96494317 -35.98141479 46.2613678 C-33.41128801 41.95035253 -30.86039304 37.62812537 -28.31100464 33.30482483 C-27.04239002 31.15657958 -25.77327085 29.00863368 -24.5038147 26.86088562 C-23.68855881 25.4812884 -22.87380969 24.10139156 -22.05960083 22.72117615 C-20.90898327 20.77226973 -19.75496703 18.82541466 -18.60006714 16.87904358 C-17.94369263 15.77012756 -17.28731812 14.66121155 -16.61105347 13.51869202 C-16.26388684 12.96823589 -15.91672022 12.41777977 -15.55903339 11.85064316 C-14.39341 9.97806184 -14.39341 9.97806184 -13.3453474 7.74011612 C-9.89462326 1.3656014 -7.17719546 -0.00478041 0 0 Z " fill="#EC8C02" transform="translate(212.45553588867188,18.980331420898438)"/>
<path d="M0 0 C1.23433525 -0.03877007 1.23433525 -0.03877007 2.49360657 -0.07832336 C10.11212683 -0.30445737 17.73261142 -0.43820084 25.35366726 -0.5436945 C30.47415135 -0.6158689 35.589957 -0.71838556 40.70800781 -0.89453125 C45.65690882 -1.06408566 50.60153221 -1.15402615 55.55314827 -1.18954277 C57.43506274 -1.21646648 59.31680307 -1.27115991 61.19705009 -1.35481453 C75.50279384 -1.96251621 75.50279384 -1.96251621 79.89646912 1.90366554 C83.01631436 5.6972829 85.18262008 9.87458213 87.19813633 14.33233643 C88.66881937 17.47457783 90.47374059 20.36581795 92.28344727 23.32446289 C93.61701176 25.60803803 94.9483301 27.89273152 96.27563477 30.17993164 C97.73112371 32.68734233 99.18786031 35.19401662 100.64672852 37.69946289 C101.01351212 38.32950226 101.38029572 38.95954163 101.75819397 39.6086731 C104.4027267 44.13291182 107.12317714 48.60599257 109.87329102 53.06665039 C110.99932318 54.90827651 112.12391154 56.75077573 113.24798584 58.59359741 C113.97048687 59.76921391 114.69947703 60.94086873 115.43511963 62.10830688 C116.45411717 63.72627701 117.44946863 65.35906727 118.44360352 66.99243164 C119.01618896 67.91282227 119.58877441 68.83321289 120.17871094 69.78149414 C121.15063477 72.36743164 121.15063477 72.36743164 120.43530273 74.98706055 C120.0113623 75.77258301 119.58742187 76.55810547 119.15063477 77.36743164 C118.5409082 78.50954102 117.93118164 79.65165039 117.30297852 80.82836914 C116.56855862 82.13523413 115.83005149 83.43980804 115.08813477 84.74243164 C114.68820313 85.44867676 114.28827148 86.15492188 113.8762207 86.88256836 C110.56093301 92.70837391 107.12975684 98.45946817 103.66235352 104.19555664 C100.64594472 109.19144541 97.68009334 114.21706933 94.71313477 119.24243164 C94.21201172 120.0907959 93.71088867 120.93916016 93.19458008 121.81323242 C92.43226074 123.10463135 92.43226074 123.10463135 91.65454102 124.42211914 C91.12703751 125.27647552 90.599534 126.13083191 90.05604553 127.01107788 C88.6156057 129.54839201 87.449595 131.93281566 86.30924988 134.59729004 C81.14134343 145.90267152 81.14134343 145.90267152 76.15234566 148.34613419 C70.38651749 149.87932181 64.48352042 149.54817232 58.57250977 149.34399414 C56.67305345 149.33511597 54.77355867 149.33248439 52.87408447 149.33578491 C48.90754762 149.32478735 44.94759554 149.25684131 40.98266602 149.14428711 C35.90793615 149.00223957 30.84077895 148.97537527 25.76432419 148.98742104 C21.84821426 148.98886056 17.93376699 148.94380194 14.01816559 148.88328171 C12.14763652 148.857228 10.27691888 148.84221894 8.40621185 148.8386116 C-6.11018132 148.75610503 -6.11018132 148.75610503 -10.24534607 145.45433044 C-11.82013581 143.13954967 -12.86051881 140.97916945 -13.84936523 138.36743164 C-14.43016846 137.41843994 -15.01097168 136.46944824 -15.609375 135.49169922 C-16.08173584 134.67338623 -16.55409668 133.85507324 -17.04077148 133.01196289 C-17.58636719 132.07102783 -18.13196289 131.13009277 -18.6940918 130.16064453 C-19.26095703 129.17700928 -19.82782227 128.19337402 -20.41186523 127.17993164 C-21.646999 125.04940824 -22.88268871 122.91920705 -24.11889648 120.78930664 C-24.73974121 119.71874023 -25.36058594 118.64817383 -26.00024414 117.54516602 C-28.84319538 112.6595239 -31.72049079 107.79445929 -34.59936523 102.92993164 C-35.12876709 102.03064941 -35.65816895 101.13136719 -36.20361328 100.20483398 C-38.7359439 95.90775972 -41.29361891 91.63140529 -43.91967773 87.39086914 C-44.394375 86.61412842 -44.86907227 85.8373877 -45.3581543 85.03710938 C-46.24125428 83.59426035 -47.1357242 82.15828205 -48.04370117 80.73095703 C-50.90384802 76.02457468 -50.90384802 76.02457468 -50.65478516 73.02050781 C-49.69182973 69.84850521 -48.29159965 67.33493035 -46.59545898 64.48461914 C-46.26288086 63.92110748 -45.93030273 63.35759583 -45.58764648 62.77700806 C-44.49418289 60.92802213 -43.39064327 59.0852755 -42.28686523 57.24243164 C-41.52002112 55.9504992 -40.75383547 54.65817572 -39.98828125 53.36547852 C-38.40410604 50.69295236 -36.8158717 48.02290289 -35.22436523 45.35473633 C-32.95297964 41.54509581 -30.69610089 37.72703712 -28.44311523 33.90649414 C-8.56916563 0.2351919 -8.56916563 0.2351919 0 0 Z " fill="#EC8B00" transform="translate(67.849365234375,263.632568359375)"/>
<path d="M0 0 C1.20948555 0.01078583 1.20948555 0.01078583 2.44340515 0.02178955 C3.71668419 0.02135147 3.71668419 0.02135147 5.01568604 0.02090454 C7.82942324 0.02230105 10.64289764 0.0378773 13.45658875 0.05352783 C15.40429032 0.05725682 17.35199376 0.06010433 19.29969788 0.06210327 C24.43226783 0.06974872 29.56472504 0.08940502 34.69725037 0.11151123 C39.93211848 0.13195005 45.16700476 0.14110078 50.40190125 0.15118408 C60.67799252 0.17265006 70.95400001 0.20679697 81.23002625 0.24884033 C81.6602005 0.99587219 82.09037476 1.74290405 82.53358459 2.51257324 C84.15012954 5.3191651 85.76721773 8.12544306 87.38465881 10.93151855 C88.08079506 12.13948479 88.77672294 13.34757114 89.47242737 14.55578613 C93.8812586 22.21212498 98.33463239 29.83491968 102.90971375 37.39337158 C106.53534368 43.39312012 110.07455723 49.44483982 113.6269989 55.48809814 C114.15084167 56.377229 114.67468445 57.26635986 115.21440125 58.18243408 C115.71778015 59.04207764 116.22115906 59.90172119 116.73979187 60.78741455 C117.70836791 62.38721528 118.71608253 63.96418302 119.76713562 65.51104736 C123.19513088 70.55965694 123.19513088 70.55965694 123.35502625 73.71759033 C121.62945502 77.60012558 119.47431821 81.14599879 117.23002625 84.74884033 C116.13325385 86.54075727 115.0383123 88.33379565 113.94487 90.12774658 C113.05130798 91.59171875 113.05130798 91.59171875 112.13969421 93.08526611 C110.09951427 96.46504772 108.09725873 99.86576499 106.1089325 103.27618408 C105.75261749 103.88704865 105.39630249 104.49791321 105.02919006 105.12728882 C103.2862164 108.11774097 101.54671429 111.11015404 99.81010437 114.10430908 C98.79143736 115.85115998 97.77060392 117.59794506 96.68348694 119.30303955 C94.34618591 123.0219667 92.73232408 126.55855873 91.32035828 130.72540283 C88.80543554 137.1801804 86.11868633 142.33869225 80.23002625 146.24884033 C68.66816472 150.49502646 55.12313149 149.61705924 43.01274109 149.42608643 C38.98715973 149.36609437 34.99125408 149.4212749 30.96879578 149.59014893 C-0.27869017 150.896438 -0.27869017 150.896438 -8.5860405 144.9485817 C-15.51237754 138.46276688 -19.08195037 129.57520129 -22.33108521 120.8508606 C-24.49678716 115.4293828 -27.49279187 110.61960767 -30.58247375 105.68634033 C-31.61705421 103.93907504 -32.64763974 102.18943137 -33.6723175 100.43634033 C-35.82595944 96.80159485 -38.03338353 93.20566633 -40.27388 89.62384033 C-40.83937561 88.71062012 -41.40487122 87.7973999 -41.98750305 86.85650635 C-43.06377141 85.12265054 -44.15185583 83.39605356 -45.25361633 81.67828369 C-45.96940857 80.52018188 -45.96940857 80.52018188 -46.69966125 79.33868408 C-47.12489075 78.66700195 -47.55012024 77.99531982 -47.98823547 77.30328369 C-49.03695375 74.5472049 -48.62843337 73.04459418 -47.76997375 70.24884033 C-46.74531555 68.07086182 -46.74531555 68.07086182 -45.4691925 65.86993408 C-44.99320618 65.04219482 -44.51721985 64.21445557 -44.02680969 63.3616333 C-43.50892883 62.47878662 -42.99104797 61.59593994 -42.45747375 60.68634033 C-41.91767883 59.75450928 -41.37788391 58.82267822 -40.82173157 57.86260986 C-36.31615436 50.11202223 -31.71074327 42.42186141 -27.07466125 34.74884033 C-24.53319933 30.53465735 -22.02502393 26.30179578 -19.52778625 22.06134033 C-19.16463318 21.44537994 -18.8014801 20.82941956 -18.42732239 20.1947937 C-16.24688195 16.49634888 -16.24688195 16.49634888 -14.07234192 12.79443359 C-13.06534333 11.07716127 -12.05445771 9.36217009 -11.04341125 7.64727783 C-10.45994934 6.65389404 -9.87648743 5.66051025 -9.27534485 4.63702393 C-6.55004685 0.31349733 -5.03118588 0.01882519 0 0 Z " fill="#EC8C00" transform="translate(65.76997375488281,101.75115966796875)"/>
<path d="M0 0 C2.06890352 1.23478573 4.04133039 2.42211336 5.90625 3.94921875 C5.90625 4.60921875 5.90625 5.26921875 5.90625 5.94921875 C6.56625 5.94921875 7.22625 5.94921875 7.90625 5.94921875 C10.88196127 10.41278566 11.0311136 14.36531138 11.03488445 19.63896084 C11.0381089 20.78080285 11.04133335 21.92264485 11.0446555 23.09908813 C11.0431069 24.34888035 11.0415583 25.59867257 11.03996277 26.88633728 C11.04183132 28.23106197 11.04413221 29.57578611 11.04682809 30.9205094 C11.05294686 34.61454825 11.05281241 38.30856447 11.05163372 42.00260723 C11.05142973 45.98699663 11.0569482 49.97137875 11.06169128 53.95576477 C11.0699985 61.76101036 11.07274615 69.5662484 11.07330366 77.37149804 C11.07377873 83.71476914 11.07583301 90.05803775 11.07900429 96.40130806 C11.08781056 114.38140886 11.09242363 132.36150369 11.09167381 150.34160667 C11.09163386 151.31096387 11.0915939 152.28032107 11.09155273 153.27905273 C11.09151185 154.24959178 11.09147097 155.22013083 11.09142885 156.22008014 C11.09102225 171.95524455 11.10059548 187.69038504 11.1146911 203.42554253 C11.12904664 219.57812875 11.13596176 235.7307033 11.13509732 251.88329607 C11.1347651 260.95347228 11.13752337 270.0236234 11.14827538 279.09379387 C11.15736949 286.81491652 11.15956455 294.53600273 11.15276595 302.25712841 C11.14949541 306.19707542 11.1494633 310.13695245 11.1581192 314.07689285 C11.16596144 317.68352452 11.16457618 321.29003045 11.15583507 324.89665896 C11.15356543 326.81964502 11.16114651 328.74263491 11.16907471 330.66560596 C11.16217652 332.38228059 11.16217652 332.38228059 11.15513897 334.13363552 C11.15535634 335.11895746 11.15557371 336.10427939 11.15579766 337.11945957 C10.65893565 342.75365323 8.84325881 346.90580429 4.90625 350.94921875 C-0.40289982 354.72688304 -3.6291397 355.40287561 -10.09375 354.94921875 C-10.09375 354.28921875 -10.09375 353.62921875 -10.09375 352.94921875 C-11.2075 352.60890625 -11.2075 352.60890625 -12.34375 352.26171875 C-15.65140809 350.68306375 -17.04233409 348.95307776 -19.09375 345.94921875 C-20.13333204 342.83047262 -20.21906254 340.68020719 -20.21959114 337.40907478 C-20.22219889 336.2496978 -20.22480664 335.09032082 -20.22749341 333.8958112 C-20.22526268 332.61616549 -20.22303196 331.33651978 -20.22073364 330.01809692 C-20.22188524 328.64963708 -20.22347302 327.28117754 -20.22546089 325.91271865 C-20.22964903 322.14381891 -20.22756581 318.37494438 -20.22447467 314.60604453 C-20.22221867 310.54461223 -20.22570122 306.48318436 -20.22845459 302.42175293 C-20.23290936 294.46149124 -20.23193705 286.50123896 -20.22904195 278.5409769 C-20.22678645 272.07226826 -20.22647603 265.60356228 -20.22756577 259.13485336 C-20.227719 258.21528352 -20.22787223 257.29571367 -20.22803011 256.34827807 C-20.22834982 254.48034732 -20.22867404 252.61241658 -20.2290027 250.74448584 C-20.23185671 233.21373223 -20.22857186 215.68298384 -20.22320233 198.15223108 C-20.21873585 183.10392618 -20.21950909 168.05562898 -20.22412109 153.00732422 C-20.2294708 135.5437453 -20.23158046 118.08017096 -20.22850883 100.61659133 C-20.22819027 98.75479945 -20.2278759 96.89300756 -20.22756577 95.03121567 C-20.22741149 94.11511958 -20.22725721 93.1990235 -20.22709826 92.25516693 C-20.22623419 85.79385004 -20.22769367 79.33253607 -20.23004532 72.87121964 C-20.23284797 64.9974145 -20.23209525 57.12361935 -20.22676457 49.24981536 C-20.22413365 45.23104071 -20.22311223 41.21228269 -20.22641373 37.19350815 C-20.22938924 33.51594743 -20.22776283 29.8384188 -20.22243617 26.160861 C-20.22078654 24.19727834 -20.22405845 22.23369346 -20.22749341 20.27011311 C-20.22488566 19.10552063 -20.22227791 17.94092816 -20.21959114 16.741045 C-20.21942879 15.73603262 -20.21926644 14.73102024 -20.21909916 13.69555295 C-20.09670115 11.01387695 -19.69506293 8.56153806 -19.09375 5.94921875 C-18.10375 5.61921875 -17.11375 5.28921875 -16.09375 4.94921875 C-15.165625 3.99015625 -15.165625 3.99015625 -14.21875 3.01171875 C-10.1705962 -0.91737171 -5.22966865 -2.62459117 0 0 Z " fill="#00A896" transform="translate(408.09375,79.05078125)"/>
<path d="M0 0 C12.72023143 -1.03292105 12.72023143 -1.03292105 17.1875 2.75 C20.53905868 6.11004364 22.24782529 9.3876061 22.25726891 14.16113091 C22.2637178 14.98747626 22.27016669 15.81382162 22.276811 16.66520774 C22.2737138 17.56772746 22.2706166 18.47024717 22.26742554 19.40011597 C22.27195665 20.36301863 22.27648776 21.32592129 22.28115618 22.31800282 C22.29384311 25.55303337 22.29217704 28.7878965 22.29052734 32.02294922 C22.29650989 34.33889992 22.3033148 36.65484862 22.31088257 38.97079468 C22.32857713 45.26829113 22.33323939 51.56573326 22.33451414 57.86325216 C22.33641137 63.1168771 22.34376683 68.37048933 22.35085833 73.62410939 C22.36622171 85.30865262 22.37219507 96.99316932 22.37084763 108.67772184 C22.37076772 109.37881485 22.3706878 110.07990785 22.37060547 110.80224609 C22.37052371 111.50419531 22.37044195 112.20614453 22.37035771 112.92936493 C22.36954475 124.3062007 22.38868469 135.68290408 22.4168822 147.05970155 C22.44560823 158.74193688 22.45905635 170.42410158 22.45769465 182.10637295 C22.45718416 188.66485651 22.46291536 195.22319028 22.48405075 201.78164291 C22.503383 207.94911862 22.50359177 214.11630085 22.48901749 220.28378677 C22.4869221 222.54852984 22.49167346 224.81329103 22.5037384 227.07800293 C22.51913317 230.16765478 22.50992036 233.25628745 22.49447632 236.34591675 C22.50476344 237.24397502 22.51505057 238.14203329 22.52564943 239.06730545 C22.45066104 245.84705925 20.48593202 249.47646564 15.67578125 254.359375 C12.28792414 256.43660126 10.12806 256.40921455 6.1875 256.25 C5.02605469 256.21390625 3.86460937 256.1778125 2.66796875 256.140625 C1.78753906 256.09421875 0.90710938 256.0478125 0 256 C0 255.34 0 254.68 0 254 C-0.598125 253.71125 -1.19625 253.4225 -1.8125 253.125 C-6.72240038 250.59990837 -6.72240038 250.59990837 -8.17162704 247.4680481 C-9.21992187 243.0792799 -9.27673089 239.00701701 -9.25396729 234.51123047 C-9.25708727 233.56295317 -9.26020725 232.61467587 -9.26342177 231.63766289 C-9.27139111 228.46410763 -9.2650822 225.29074414 -9.25878906 222.1171875 C-9.26149939 219.84035124 -9.26506056 217.56351585 -9.26940918 215.28668213 C-9.27853041 209.10499168 -9.27498998 202.92336795 -9.26865101 196.74167633 C-9.26358968 190.27423421 -9.26828284 183.80679782 -9.27142334 177.33935547 C-9.27529573 165.78236305 -9.26907799 154.22540477 -9.25890467 142.66841769 C-9.24996939 132.19364363 -9.25152151 121.71891389 -9.26074219 111.24414062 C-9.27144956 99.0748022 -9.27542693 86.90549857 -9.26951766 74.73615456 C-9.26639861 68.29623983 -9.26598688 61.85635564 -9.27259064 55.41644287 C-9.27836512 49.3622712 -9.27436522 43.30818331 -9.26280212 37.25402069 C-9.2601561 35.03120818 -9.26091964 32.80838863 -9.26532745 30.58557892 C-9.27078651 27.55321372 -9.26394419 24.52111756 -9.25396729 21.48876953 C-9.25842873 20.60763929 -9.26289017 19.72650906 -9.26748681 18.8186779 C-9.23781757 14.17448011 -8.92685681 10.31775569 -7 6 C-2.78947368 2 -2.78947368 2 0 2 C0 1.34 0 0.68 0 0 Z " fill="#02C39A" transform="translate(364,128)"/>
<path d="M0 0 C5.62059259 2.29232011 7.9103281 6.15620874 10.18774319 11.55933762 C11.45081023 15.35459076 11.55400975 18.87046117 11.50793457 22.84228516 C11.51417453 23.68483667 11.5204145 24.52738819 11.52684355 25.39547157 C11.54268488 28.19362749 11.53020439 30.99090151 11.51757812 33.7890625 C11.52300319 35.80532333 11.530128 37.82158019 11.53881836 39.83782959 C11.55700884 45.29650395 11.55000175 50.75487492 11.53730202 56.21355438 C11.52715224 61.93485818 11.53657319 67.65613656 11.54284668 73.37744141 C11.55011731 82.98409676 11.54055066 92.59062898 11.52148438 102.19726562 C11.49971684 113.29284598 11.50676862 124.38813229 11.52879 135.48370552 C11.54696059 145.02197849 11.54949418 154.56016311 11.53903532 164.0984478 C11.53280955 169.79006645 11.53193962 175.48154704 11.54518127 181.17315674 C11.55676323 186.52490201 11.54867096 191.87626935 11.52560425 197.22797394 C11.52032972 199.18828963 11.52180935 201.1486373 11.53065491 203.10894012 C11.54164382 205.79228975 11.52780698 208.47444084 11.50793457 211.15771484 C11.51685746 211.92689554 11.52578034 212.69607624 11.53497362 213.48856544 C11.44462299 219.81119875 9.78869953 225.97160414 5.41604662 230.7200985 C1.51826154 234.11544844 -2.48760414 234.80986936 -7.56640625 234.5625 C-11.73625862 233.5986818 -14.17682236 231.07778782 -17 228 C-17.80630859 227.31357422 -17.80630859 227.31357422 -18.62890625 226.61328125 C-22.02401772 222.61846347 -21.14113166 216.58143231 -21.12698364 211.61181641 C-21.12854363 210.76986032 -21.13010362 209.92790424 -21.13171089 209.06043434 C-21.1356977 206.24079256 -21.1325402 203.42120468 -21.12939453 200.6015625 C-21.1307496 198.57940642 -21.13253013 196.55725058 -21.13470459 194.53509521 C-21.13926636 189.04348903 -21.1374945 183.55190162 -21.1343255 178.0602951 C-21.13179544 172.3157496 -21.13414125 166.57120572 -21.13571167 160.82666016 C-21.13753147 151.17935904 -21.13513201 141.53206558 -21.13037109 131.88476562 C-21.12492884 120.72793527 -21.12669163 109.5711232 -21.1321975 98.41429329 C-21.13673401 88.83882045 -21.13737653 79.26335312 -21.13475883 69.68787956 C-21.13319903 63.96731135 -21.13299419 58.24675174 -21.13629532 52.52618408 C-21.13918182 47.1483703 -21.13718393 41.7705801 -21.13140106 36.39276886 C-21.13007766 34.41786997 -21.13046048 32.44296909 -21.13266373 30.46807098 C-21.13539167 27.7747483 -21.13197387 25.08150144 -21.12698364 22.38818359 C-21.12921436 21.60462305 -21.13144509 20.82106251 -21.13374341 20.01375771 C-21.0987311 10.28708501 -21.0987311 10.28708501 -17.8125 6.4375 C-11.98512983 1.38711252 -7.82558453 -1.52694332 0 0 Z " fill="#04658C" transform="translate(279,139)"/>
<path d="M0 0 C6.13982413 3.12783494 9.79771074 7.52356629 12 14 C12.25726891 16.5294466 12.25726891 16.5294466 12.26742554 19.25495911 C12.27595551 20.29362625 12.28448547 21.3322934 12.29327393 22.4024353 C12.29236755 23.53138214 12.29146118 24.66032898 12.29052734 25.82348633 C12.29724457 27.02080887 12.30396179 28.21813141 12.31088257 29.45173645 C12.32660982 32.72877219 12.33323672 36.00565568 12.33451414 39.28272462 C12.33593816 41.33297635 12.34021252 43.38320172 12.34550858 45.43344688 C12.36400015 52.5944016 12.37218042 59.75528197 12.37060547 66.91625977 C12.36940479 73.57771301 12.39049453 80.23884187 12.4220928 86.90021306 C12.44829922 92.63034321 12.45897092 98.36036771 12.45769465 104.09055728 C12.45718623 107.50805144 12.46280229 110.92525727 12.48405075 114.34269142 C12.5036738 118.15817701 12.49788585 121.97283073 12.48583984 125.78833008 C12.49707886 126.91120422 12.50831787 128.03407837 12.51989746 129.190979 C12.46278001 136.32047828 11.58573804 142.14431184 6.58807945 147.51821613 C1.25880813 152.25783775 -2.98856291 153.27495832 -10 153 C-10 152.01 -10 151.02 -10 150 C-10.86625 149.8453125 -10.86625 149.8453125 -11.75 149.6875 C-15.75433576 148.46395296 -17.70056869 146.44914697 -20 143 C-20.25168228 140.61735821 -20.25168228 140.61735821 -20.25396729 137.74430847 C-20.25960693 136.65501541 -20.26524658 135.56572235 -20.27105713 134.44342041 C-20.26700867 133.2480365 -20.26296021 132.05265259 -20.25878906 130.82104492 C-20.2622937 129.56228043 -20.26579834 128.30351593 -20.26940918 127.00660706 C-20.27853622 123.5519075 -20.27498694 120.09732725 -20.26865101 116.64262557 C-20.26358933 113.02593268 -20.26828324 109.40925005 -20.27142334 105.79255676 C-20.27506389 99.71544562 -20.27026302 93.63838306 -20.26074219 87.5612793 C-20.24987212 80.54206029 -20.25337228 73.5229576 -20.264395 66.50374144 C-20.27348288 60.47475224 -20.27474537 54.44579798 -20.26951766 48.41680413 C-20.26640432 44.81723489 -20.26597082 41.21772023 -20.27259064 37.61815453 C-20.27946175 33.60107971 -20.26992682 29.58420391 -20.25878906 25.56713867 C-20.26283752 24.37782745 -20.26688599 23.18851624 -20.27105713 21.96316528 C-20.20693992 9.48280741 -20.20693992 9.48280741 -16.34375 5.13671875 C-15.7353125 4.65847656 -15.126875 4.18023437 -14.5 3.6875 C-13.8915625 3.19636719 -13.283125 2.70523438 -12.65625 2.19921875 C-8.68115766 -0.67897311 -4.763289 -0.578342 0 0 Z " fill="#05658C" transform="translate(440,180)"/>
<path d="M0 0 C3.4375 1.8125 3.4375 1.8125 6 4 C6.5775 4.474375 7.155 4.94875 7.75 5.4375 C11.83005401 10.53756751 11.2899954 16.37197174 11.2746582 22.57006836 C11.2823246 24.16604607 11.2823246 24.16604607 11.29014587 25.79426575 C11.30403989 29.30951572 11.30308527 32.82456959 11.30078125 36.33984375 C11.30466815 38.78455173 11.30900281 41.22925903 11.31376648 43.67396545 C11.3212282 48.79755849 11.32093763 53.92108261 11.31567383 59.04467773 C11.30987796 65.60976652 11.32681356 72.17457329 11.3500185 78.73961544 C11.3647511 83.78822987 11.36562819 88.83677629 11.36250877 93.8854084 C11.36302218 96.30590944 11.36826346 98.72641426 11.37832069 101.14689445 C11.39065882 104.53162842 11.38390877 107.91581193 11.37231445 111.30053711 C11.38378006 112.79926865 11.38378006 112.79926865 11.39547729 114.32827759 C11.35509435 119.66279847 10.94224979 123.35513128 8 128 C7.34 128 6.68 128 6 128 C5.67 128.99 5.34 129.98 5 131 C1.28908136 134.1310876 -2.10171207 134.52286102 -6.7890625 134.3515625 C-11.44127809 133.6118109 -14.17990659 130.86442278 -17.3125 127.5625 C-19.8527189 123.70513055 -20.12381697 119.95749263 -20.13371277 115.41493225 C-20.13797775 114.52482956 -20.14224274 113.63472687 -20.14663696 112.71765137 C-20.14618378 111.75387573 -20.14573059 110.7901001 -20.14526367 109.79711914 C-20.14862228 108.77214828 -20.1519809 107.74717743 -20.15544128 106.69114685 C-20.1649337 103.3058043 -20.16689344 99.92051128 -20.16796875 96.53515625 C-20.17118216 94.1801298 -20.17454629 91.82510355 -20.17805481 89.47007751 C-20.18404154 84.53481585 -20.18589514 79.59957168 -20.18530273 74.66430664 C-20.18520106 68.34141779 -20.1988613 62.0186411 -20.21607494 55.69577885 C-20.22719384 50.83246851 -20.22922199 45.96918532 -20.22869301 41.10586357 C-20.22987298 38.77467906 -20.23429571 36.44349385 -20.24202538 34.11232185 C-20.25182428 30.85222638 -20.24894764 27.5923748 -20.24291992 24.33227539 C-20.24853943 23.37052399 -20.25415894 22.40877258 -20.25994873 21.4178772 C-20.22113252 13.15468388 -18.63791113 8.05044122 -13 2 C-8.74804276 -0.83463816 -4.9930674 -0.64552117 0 0 Z " fill="#028090" transform="translate(311,189)"/>
<path d="M0 0 C5.60009366 2.87976347 8.49788922 6.2338653 11 12 C11.38768005 14.95225525 11.38768005 14.95225525 11.40405273 18.07788086 C11.41673691 19.25607895 11.42942108 20.43427704 11.44248962 21.6481781 C11.43955399 22.90767776 11.43661835 24.16717743 11.43359375 25.46484375 C11.4388356 26.77151505 11.44407745 28.07818634 11.44947815 29.42445374 C11.45838732 32.18402803 11.45601168 34.94331258 11.44604492 37.70288086 C11.43455966 41.22458817 11.45476932 44.74529207 11.48396206 48.26686764 C11.50680991 51.64541138 11.49985374 55.02372476 11.49609375 58.40234375 C11.51294472 60.2885569 11.51294472 60.2885569 11.53013611 62.21287537 C11.46784062 70.05779344 10.80003056 74.88330023 5.359375 80.77734375 C0.70613192 84.13174471 -2.28779027 84.55279449 -8 84 C-8.94875 83.9175 -9.8975 83.835 -10.875 83.75 C-13 83 -13 83 -14.1875 81 C-14.455625 80.34 -14.72375 79.68 -15 79 C-15.66 78.67 -16.32 78.34 -17 78 C-17 77.34 -17 76.68 -17 76 C-17.66 76 -18.32 76 -19 76 C-20.00426071 69.3461495 -20.14551819 62.84776507 -20.1328125 56.125 C-20.13376923 55.00109863 -20.13472595 53.87719727 -20.13571167 52.71923828 C-20.13638954 50.35253849 -20.13456279 47.9858368 -20.13037109 45.61914062 C-20.12501733 42.01167597 -20.13032951 38.40433581 -20.13671875 34.796875 C-20.1360579 32.48958306 -20.13477659 30.1822912 -20.1328125 27.875 C-20.13483673 26.8039502 -20.13686096 25.73290039 -20.13894653 24.62939453 C-20.12143021 18.99104015 -19.8417134 13.57687366 -19 8 C-18.34 8 -17.68 8 -17 8 C-17 7.34 -17 6.68 -17 6 C-11.79229353 1.25520077 -7.35228623 -1.37364778 0 0 Z " fill="#027F90" transform="translate(472,214)"/>
<path d="M0 0 C4.17613636 2.50568182 4.17613636 2.50568182 5.8125 4.6875 C5.8125 5.6775 5.8125 6.6675 5.8125 7.6875 C6.8025 7.6875 7.7925 7.6875 8.8125 7.6875 C8.8125 21.5475 8.8125 35.4075 8.8125 49.6875 C7.8225 49.6875 6.8325 49.6875 5.8125 49.6875 C5.709375 50.285625 5.60625 50.88375 5.5 51.5 C4.43129219 54.90043395 2.70659476 56.16156191 -0.3125 57.9375 C-5.14085586 59.19707109 -9.78340322 58.94635597 -14.25390625 56.60546875 C-17.30153907 54.49948448 -19.10291674 52.81437489 -21.1875 49.6875 C-21.42800903 47.73225403 -21.42800903 47.73225403 -21.41455078 45.49145508 C-21.41439972 44.65081009 -21.41424866 43.8101651 -21.41409302 42.94404602 C-21.40377045 42.04083115 -21.39344788 41.13761627 -21.3828125 40.20703125 C-21.3799826 39.27904221 -21.37715271 38.35105316 -21.37423706 37.39494324 C-21.36303836 34.42983121 -21.33793435 31.46502079 -21.3125 28.5 C-21.3024698 26.49023874 -21.29334402 24.48047274 -21.28515625 22.47070312 C-21.26310004 17.54285247 -21.22857229 12.61522738 -21.1875 7.6875 C-20.5275 7.6875 -19.8675 7.6875 -19.1875 7.6875 C-19.14625 7.11 -19.105 6.5325 -19.0625 5.9375 C-17.73250609 2.51751567 -15.28661668 1.48498768 -12.1875 -0.3125 C-7.63837798 -1.82887401 -4.46309887 -1.83774659 0 0 Z " fill="#00A796" transform="translate(345.1875,227.3125)"/>
<path d="M0 0 C2.7587207 1.21141428 4.85877825 2.85877825 7 5 C7.11885214 6.42072264 7.17003816 7.8472026 7.19287109 9.27270508 C7.21696548 10.63465752 7.21696548 10.63465752 7.24154663 12.02412415 C7.2858538 16.18575442 7.32706812 20.34722235 7.35009766 24.5090332 C7.36665954 26.70608104 7.39395244 28.90307495 7.43212891 31.09985352 C7.48681357 34.26086495 7.50875975 37.4206109 7.5234375 40.58203125 C7.54610687 41.5644429 7.56877625 42.54685455 7.59213257 43.55903625 C7.57092363 50.38617895 7.57092363 50.38617895 4.59228516 53.58862305 C-0.39667406 56.30487594 -4.32375021 56.65294284 -10 56 C-13.23939656 54.26460898 -15.42321134 52.57678866 -18 50 C-18 49.01 -18 48.02 -18 47 C-18.66 47 -19.32 47 -20 47 C-20 34.46 -20 21.92 -20 9 C-19.34 9 -18.68 9 -18 9 C-17.9071875 8.13375 -17.9071875 8.13375 -17.8125 7.25 C-15.05111466 -0.39691324 -6.87893026 -0.80061057 0 0 Z " fill="#00A896" transform="translate(505,228)"/>
<path d="M0 0 C-1.49097658 3.7952131 -3.75700849 5.61042731 -7 8 C-4.18918919 0 -4.18918919 0 0 0 Z " fill="#428AA6" transform="translate(196,5)"/>
</svg>
